<svg width="69" height="69" viewBox="0 0 69 69" fill="none" xmlns="http://www.w3.org/2000/svg">
<rect x="0.0651855" y="0.153076" width="68" height="68" rx="6" fill="#CAA98A"/>
<path fill-rule="evenodd" clip-rule="evenodd" d="M56.0963 14.5639C57.4166 15.2587 58.5325 16.2632 59.3402 17.4839C60.1533 18.7011 60.6328 20.096 60.7341 21.5391C60.8354 22.9821 60.5553 24.4264 59.9197 25.7374L57.0611 31.6673C58.1351 33.0979 58.8819 34.7306 59.2526 36.4582C59.6233 38.1858 59.6094 39.9692 59.2119 41.6913C58.8144 43.4135 58.0423 45.0353 56.9462 46.4503C55.8501 47.8653 54.455 49.0414 52.8523 49.9015C52.7281 49.9704 52.5875 50.0072 52.4441 50.0084H46.5168C46.2955 50.0084 46.0833 49.9239 45.9269 49.7736C45.7705 49.6233 45.6826 49.4194 45.6826 49.2068C45.6826 48.9941 45.7705 48.7903 45.9269 48.6399C46.0833 48.4896 46.2955 48.4051 46.5168 48.4051H52.225C53.5325 47.6627 54.6722 46.6764 55.577 45.5043C56.4818 44.3322 57.1334 42.998 57.4935 41.5802C57.8536 40.1624 57.9148 38.6898 57.6737 37.2489C57.4325 35.808 56.8938 34.4281 56.0892 33.1903C55.2847 31.9525 54.2306 30.882 52.9889 30.0416C51.7473 29.2012 50.3432 28.6081 48.8594 28.297C47.3756 27.986 45.842 27.9634 44.349 28.2305C42.8559 28.4976 41.4336 29.0491 40.1657 29.8524C40.1627 29.8534 40.1604 29.8556 40.1581 29.8578C40.1553 29.8605 40.1527 29.8631 40.149 29.8631C39.1541 30.5014 38.2711 31.2875 37.5329 32.1921C37.525 32.2032 37.5165 32.2139 37.5073 32.2241C36.847 33.0379 36.3086 33.9367 35.9079 34.8941C35.8225 35.0871 35.6618 35.2402 35.4603 35.3207C35.2587 35.4011 35.0324 35.4025 34.8298 35.3245C34.6272 35.2464 34.4646 35.0952 34.3766 34.9033C34.2887 34.7113 34.2826 34.4939 34.3596 34.2977C34.7653 33.3306 35.2939 32.4155 35.9335 31.5732L33.1205 25.7385C32.4884 24.4266 32.2101 22.9829 32.3115 21.5404C32.4129 20.098 32.8905 18.7033 33.7005 17.485C34.5105 16.2666 35.6266 15.2639 36.946 14.5692C38.2655 13.8745 39.7457 13.5103 41.2501 13.51H51.789C53.2943 13.5065 54.776 13.8691 56.0963 14.5639ZM55.881 30.3013L58.4059 25.0641V25.0619C58.9205 23.9943 59.147 22.8193 59.0645 21.6453C58.982 20.4714 58.5932 19.3363 57.9339 18.3448C57.2746 17.3534 56.3661 16.5374 55.2921 15.9722C54.2182 15.4071 53.0134 15.1109 51.789 15.1111H41.2501C40.0256 15.1109 38.8208 15.4072 37.7468 15.9724C36.6729 16.5377 35.7644 17.3539 35.1053 18.3455C34.4462 19.3372 34.0576 20.4724 33.9755 21.6465C33.8934 22.8205 34.1203 23.9955 34.6354 25.063L37.1192 30.2169C37.6232 29.7189 38.1698 29.2623 38.7531 28.852L36.5219 24.225C36.1542 23.462 35.9923 22.6222 36.0513 21.7832C36.1102 20.9442 36.388 20.133 36.8591 19.4243C37.3301 18.7157 37.9793 18.1324 38.7467 17.7283C39.5141 17.3242 40.3751 17.1122 41.2501 17.112H48.253C48.4743 17.112 48.6865 17.1964 48.8429 17.3468C48.9993 17.4971 49.0872 17.701 49.0872 17.9136C49.0872 18.1262 48.9993 18.3301 48.8429 18.4804C48.6865 18.6308 48.4743 18.7152 48.253 18.7152H41.2557C40.6607 18.7149 40.0751 18.8587 39.5532 19.1333C39.0312 19.4079 38.5897 19.8044 38.2693 20.2863C37.949 20.7682 37.7602 21.3199 37.7203 21.8904C37.6804 22.4609 37.7908 23.0319 38.0412 23.5506L40.1768 27.9798C42.1189 26.9535 44.3011 26.4199 46.5174 26.4295C48.7338 26.439 50.911 26.9914 52.8434 28.0343L55.0012 23.5506C55.2517 23.0318 55.3621 22.4607 55.3221 21.8901C55.2822 21.3195 55.0933 20.7678 54.7728 20.2859C54.4523 19.8039 54.0107 19.4074 53.4886 19.1329C52.9664 18.8584 52.3808 18.7147 51.7856 18.7152H50.7434C50.5222 18.7152 50.31 18.6308 50.1535 18.4804C49.9971 18.3301 49.9092 18.1262 49.9092 17.9136C49.9092 17.701 49.9971 17.4971 50.1535 17.3468C50.31 17.1964 50.5222 17.112 50.7434 17.112H51.789C52.6641 17.1116 53.5251 17.3231 54.2928 17.7269C55.0604 18.1307 55.7098 18.7138 56.181 19.4223C56.6523 20.1309 56.9302 20.9421 56.9892 21.7811C57.0481 22.6201 56.8862 23.4599 56.5183 24.2229L54.2526 28.9257C54.834 29.3403 55.3786 29.8004 55.881 30.3013ZM19.1339 49.0055C19.8622 48.9773 20.5753 48.7965 21.2234 48.4759C21.4255 48.389 21.6552 48.3828 21.862 48.4587C22.0688 48.5345 22.2358 48.6862 22.3262 48.8804C22.4166 49.0746 22.4231 49.2953 22.3441 49.4941C22.2652 49.6928 22.1073 49.8533 21.9052 49.9402C20.9335 50.37 19.8784 50.5984 18.8087 50.6103C17.9458 50.6154 17.0921 50.4396 16.3071 50.0951L11.2819 47.8666C7.31551 46.1063 6.18322 40.3186 8.75591 34.9584C9.8625 32.541 11.6973 30.4976 14.0236 29.0916C14.9727 28.4744 16.0648 28.0902 17.2042 27.9728C18.3437 27.8554 19.4957 28.0084 20.5594 28.4182C20.5783 28.4248 20.5969 28.4323 20.615 28.4407L25.638 30.6713C26.7037 31.2092 27.611 31.9966 28.2759 32.9609C28.9408 33.9251 29.3419 35.0349 29.442 36.1876C29.4576 36.2918 29.4517 36.3979 29.4247 36.5C29.3976 36.602 29.3499 36.6979 29.2843 36.7822C29.2186 36.8665 29.1364 36.9376 29.0421 36.9913C28.9479 37.0451 28.8436 37.0805 28.7352 37.0955C28.6267 37.1105 28.5162 37.1049 28.41 37.0789C28.3039 37.0529 28.2041 37.007 28.1163 36.9439C28.0286 36.8809 27.9546 36.8018 27.8987 36.7113C27.8427 36.6207 27.8059 36.5205 27.7903 36.4163C27.7321 35.5277 27.4399 34.6679 26.941 33.9176C26.4422 33.1673 25.7531 32.5512 24.9384 32.1271C21.8062 30.7333 17.4806 33.3113 15.2939 37.8603C14.8608 38.7568 14.534 39.6972 14.3195 40.6638C14.2802 40.8434 14.1779 41.0046 14.0297 41.1204C13.8815 41.2362 13.6963 41.2995 13.5053 41.2998C13.4467 41.2998 13.3881 41.2941 13.3307 41.2827C13.1143 41.2385 12.9251 41.1136 12.8045 40.9355C12.684 40.7573 12.642 40.5404 12.6878 40.3325C12.9276 39.2482 13.294 38.1933 13.7801 37.188C14.4564 35.6327 15.4634 34.2303 16.7366 33.0708C18.0097 31.9112 19.5209 31.02 21.1733 30.4544L19.9643 29.9199C19.9469 29.9137 19.9298 29.9066 19.9131 29.8986C19.0888 29.5893 18.1979 29.4798 17.3191 29.5799C16.4403 29.68 15.6008 29.9866 14.8745 30.4725C12.8385 31.7129 11.2348 33.51 10.2697 35.6328C9.21404 37.7157 8.8302 40.0543 9.16745 42.3483C9.2527 43.1955 9.55411 44.0094 10.045 44.7178C10.5358 45.4263 11.201 46.0075 11.9815 46.4098L13.2273 46.9613C12.6785 45.7638 12.3937 44.4701 12.3908 43.1617C12.3894 43.0564 12.4095 42.9519 12.45 42.8541C12.4906 42.7563 12.5508 42.6671 12.6273 42.5917C12.7037 42.5162 12.7949 42.456 12.8955 42.4144C12.9962 42.3729 13.1044 42.3507 13.2139 42.3493H13.225C13.4444 42.3493 13.6549 42.4323 13.811 42.5803C13.9671 42.7284 14.0563 42.9295 14.0592 43.1403C14.0937 45.7803 15.196 47.8356 17.0068 48.6394C17.6796 48.9088 18.4056 49.0338 19.1339 49.0055ZM36.2686 36.6812L41.2939 38.9108C45.2591 40.668 46.3925 46.4578 43.8199 51.803C42.7136 54.2209 40.8788 56.2647 38.5521 57.6709C37.3274 58.4082 35.9183 58.8144 34.4734 58.8466C33.6066 58.8502 32.7495 58.6719 31.9619 58.3239L26.9377 56.0954C23.3573 54.5104 22.096 49.6376 23.7767 44.7659L19.7157 42.6282C19.4769 42.4994 19.2738 42.3171 19.124 42.0968C18.9741 41.8765 18.8818 41.6246 18.8548 41.3627C18.7529 40.6751 18.8672 39.9738 19.183 39.349C19.8336 38.0002 21.204 37.2039 22.1772 37.6389L26.5629 39.9422C29.3525 36.7603 33.2143 35.3249 36.2686 36.6812ZM20.4999 41.0955C20.5078 41.1459 20.5224 41.1951 20.5433 41.2419L24.384 43.2588C24.3906 43.2453 24.3963 43.2317 24.402 43.2182L24.402 43.2182L24.4107 43.1979C24.7386 42.5179 25.1193 41.8627 25.5496 41.2377L21.5388 39.1289C21.1528 39.3185 20.853 39.6381 20.6968 40.0267C20.5262 40.3576 20.4579 40.7285 20.4999 41.0955ZM35.5701 38.1402C32.4368 36.7528 28.1123 39.3245 25.9256 43.8745C23.7388 48.4212 24.5074 53.2545 27.6474 54.6482L28.8709 55.1933C28.5575 54.5222 28.3333 53.8159 28.2035 53.091C27.8094 50.4769 28.2386 47.8093 29.4359 45.4317C30.5422 43.0142 32.377 40.9706 34.7036 39.5649C35.3616 39.1886 36.0665 38.8938 36.8014 38.6874L35.5701 38.1402ZM37.7012 56.3028C39.7371 55.0622 41.3407 53.2652 42.306 51.1425C44.4928 46.5882 43.7242 41.755 40.5898 40.3644C40.0218 40.1158 39.4043 39.9889 38.7801 39.9925C37.6363 40.0249 36.5224 40.3515 35.5545 40.9384C33.5182 42.1785 31.9145 43.9756 30.9497 46.0987C29.8939 48.1815 29.5104 50.5202 29.8486 52.8141C29.9334 53.6613 30.2345 54.4752 30.7252 55.1837C31.2159 55.8922 31.881 56.4734 32.6615 56.8757C33.4857 57.1863 34.377 57.2965 35.2561 57.1965C36.1353 57.0966 36.9752 56.7896 37.7012 56.3028ZM46.5814 43.1924C46.3602 43.195 46.1491 43.2819 45.9945 43.434C45.8399 43.5862 45.7546 43.7911 45.7572 44.0037C45.7599 44.2163 45.8503 44.4192 46.0086 44.5677C46.167 44.7162 46.3802 44.7982 46.6014 44.7957H46.627C47.7143 44.7695 48.7743 44.463 49.696 43.9081C50.6177 43.3533 51.3672 42.5705 51.866 41.6418C52.3649 40.7131 52.5947 39.6726 52.5315 38.6292C52.4683 37.5858 52.1143 36.578 51.5066 35.7112C50.8989 34.8444 50.0599 34.1505 49.0775 33.7022C48.095 33.2539 47.0051 33.0677 45.922 33.163C44.839 33.2584 43.8025 33.6317 42.9211 34.2441C42.0397 34.8565 41.3458 35.6853 40.9122 36.6437C40.8237 36.8386 40.8194 37.0593 40.9002 37.2572C40.981 37.4552 41.1404 37.6141 41.3432 37.6992C41.546 37.7842 41.7756 37.7884 41.9816 37.7107C42.1876 37.633 42.353 37.4799 42.4415 37.285C42.7559 36.5902 43.2588 35.9893 43.8977 35.5453C44.5366 35.1013 45.288 34.8305 46.0732 34.7613C46.8583 34.6921 47.6484 34.827 48.3607 35.1519C49.073 35.4768 49.6814 35.9797 50.122 36.608C50.5626 37.2363 50.8194 37.9669 50.8654 38.7233C50.9113 39.4797 50.7449 40.234 50.3834 40.9074C50.0219 41.5807 49.4786 42.1483 48.8106 42.5507C48.1425 42.9531 47.3741 43.1754 46.5859 43.1946L46.5814 43.1924Z" fill="white"/>
</svg>
