<svg width="69" height="69" viewBox="0 0 69 69" fill="none" xmlns="http://www.w3.org/2000/svg">
<rect x="0.502075" y="0.554199" width="68" height="68" rx="6" fill="#CAA98A"/>
<path d="M27.4448 39.8414C28.4573 39.8413 29.4471 39.5124 30.289 38.8961C31.1308 38.2798 31.7869 37.4039 32.1744 36.3791C32.5618 35.3542 32.6632 34.2266 32.4657 33.1387C32.2681 32.0508 31.7806 31.0514 31.0646 30.2671C30.3487 29.4827 29.4365 28.9486 28.4434 28.7322C27.4504 28.5158 26.4211 28.6268 25.4856 29.0513C24.5502 29.4757 23.7506 30.1946 23.1881 31.1168C22.6255 32.0391 22.3253 33.1234 22.3252 34.2327C22.3267 35.7197 22.8666 37.1453 23.8264 38.1968C24.7862 39.2483 26.0875 39.8397 27.4448 39.8414ZM27.4448 30.3836C28.1398 30.3836 28.8191 30.6094 29.3969 31.0324C29.9747 31.4554 30.425 32.0566 30.6909 32.76C30.9568 33.4634 31.0263 34.2374 30.8907 34.9841C30.7551 35.7307 30.4204 36.4166 29.929 36.9549C29.4376 37.4932 28.8115 37.8598 28.1299 38.0083C27.4483 38.1567 26.7419 38.0805 26.0999 37.7891C25.4578 37.4977 24.9091 37.0043 24.5231 36.3713C24.137 35.7382 23.931 34.994 23.931 34.2327C23.932 33.2121 24.3026 32.2336 24.9613 31.512C25.6201 30.7904 26.5133 30.3846 27.4448 30.3836ZM57.3702 52.0255C52.8453 52.0255 51.9252 49.1059 50.5323 44.6877C49.3936 41.063 47.4256 33.4663 36.9145 32.9708C36.9145 21.7835 36.9172 30.2005 36.9172 20.8519H40.4961C40.6646 20.8513 40.8286 20.7928 40.965 20.6845C41.1014 20.5763 41.2034 20.4238 41.2564 20.2486C41.3094 20.0735 41.3109 19.8845 41.2606 19.7084C41.2103 19.5323 41.1107 19.3779 40.976 19.2671L30.3502 10.5854C29.5089 9.90485 28.4907 9.5376 27.4448 9.5376C26.399 9.5376 25.3807 9.90485 24.5395 10.5854L13.9137 19.2671C13.779 19.3779 13.6794 19.5323 13.6291 19.7084C13.5788 19.8845 13.5803 20.0735 13.6333 20.2486C13.6863 20.4238 13.7883 20.5763 13.9247 20.6845C14.0611 20.7928 14.2251 20.8513 14.3936 20.8519H17.9748C17.9748 36.8803 17.9721 44.984 17.9721 45.7447H15.1553C14.9423 45.7447 14.7381 45.8374 14.5876 46.0023C14.437 46.1673 14.3524 46.391 14.3524 46.6243V49.7668H12.7854C12.5725 49.7669 12.3683 49.8595 12.2177 50.0245C12.0671 50.1894 11.9825 50.4132 11.9825 50.6464V53.7894H10.4156C10.2026 53.7894 9.99841 53.8821 9.84784 54.0471C9.69727 54.212 9.61268 54.4358 9.61267 54.669V58.6912C9.61268 58.9245 9.69727 59.1482 9.84784 59.3131C9.99841 59.4781 10.2026 59.5708 10.4156 59.5708H23.5609C23.7739 59.5708 23.9781 59.4781 24.1286 59.3131C24.2792 59.1482 24.3638 58.9245 24.3638 58.6912V52.6736C24.3638 48.2135 30.5258 48.2123 30.5258 52.6736V58.6912C30.5259 58.9245 30.6105 59.1482 30.761 59.3131C30.9116 59.4781 31.1158 59.5708 31.3287 59.5708H39.6815C39.8944 59.5708 40.0986 59.4781 40.2492 59.3131C40.3997 59.1482 40.4843 58.9245 40.4844 58.6912V51.9706C40.4844 48.6859 45.0214 48.6859 45.0214 51.9706V58.601C45.0186 58.631 45.0171 58.6611 45.0171 58.6912C45.0171 58.9245 45.1017 59.1482 45.2523 59.3131C45.4028 59.4781 45.607 59.5708 45.82 59.5708H57.3702C57.5831 59.5708 57.7873 59.4781 57.9379 59.3131C58.0884 59.1482 58.173 58.9245 58.173 58.6912V56.2711C60.1799 55.3151 59.5516 52.0255 57.3702 52.0255ZM49.0139 45.2611C50.3958 49.6444 51.7013 53.7847 57.3702 53.7847C57.9199 53.7847 57.9199 54.6961 57.3702 54.6961C51.1097 54.6961 49.5812 49.842 48.2098 45.4874C47.0925 41.9675 45.6228 36.1057 36.9145 35.6425V34.7308C46.2499 35.2062 47.8876 41.6742 49.0139 45.2611ZM31.7643 20.8519V25.2499H23.1281V20.8519H31.7643ZM35.3087 27.0091V41.4567H19.5806V27.0091H35.3087ZM35.3114 25.2499H33.3701V20.8519H35.3114V25.2499ZM25.4992 11.9959C26.0624 11.5398 26.7444 11.2937 27.4448 11.2937C28.1453 11.2937 28.8272 11.5398 29.3905 11.9959L38.0765 19.0928H16.8132L25.4992 11.9959ZM21.5223 20.8519V25.2499H19.5806V20.8519H21.5223ZM11.2185 55.5486H12.7854C12.9984 55.5486 13.2026 55.4559 13.3531 55.291C13.5037 55.126 13.5883 54.9023 13.5883 54.669V51.526H15.1553C15.3682 51.526 15.5724 51.4334 15.723 51.2684C15.8736 51.1034 15.9582 50.8797 15.9582 50.6464V47.5039H17.9721V57.8116H11.2185V55.5486ZM22.758 52.6736V57.8116H19.5778V43.2184H35.3114V57.8116H32.1316V52.6736C32.1316 45.8881 22.758 45.8882 22.758 52.6736ZM46.6272 57.8116V51.9706C46.6272 46.3621 38.8786 46.3594 38.8786 51.9706V57.8116H36.9172C36.9172 45.8777 36.9145 38.5612 36.9145 37.4032C44.4526 37.8391 45.5908 42.5922 46.7146 46.1334C48.0344 50.3243 49.8383 55.9897 56.5673 56.414V57.8116H46.6272Z" fill="white"/>
</svg>
