<svg width="69" height="69" viewBox="0 0 69 69" fill="none" xmlns="http://www.w3.org/2000/svg">
<rect x="0.40979" y="0.153076" width="68" height="68" rx="6" fill="#CAA98A"/>
<path fill-rule="evenodd" clip-rule="evenodd" d="M59.0246 44.8577C58.6912 44.6081 58.2364 44.7044 58.0088 45.0715C57.9475 45.1704 56.4758 47.4943 53.773 47.4943C51.0702 47.4943 49.5986 45.1704 49.5387 45.0742C49.2695 44.6037 48.5923 44.6042 48.3234 45.0748C48.3087 45.099 46.8201 47.4945 44.0932 47.4945C41.8074 47.4945 40.4024 45.8327 39.987 45.2614V32.7498H58.6146C59.0189 32.7498 59.3466 32.3884 59.3466 31.9424C59.3466 31.4964 59.0189 31.1349 58.6146 31.1349H52.7279V25.2502C52.7279 19.9115 48.837 15.5266 44.0544 15.4756C41.7015 15.4495 39.4826 16.4446 37.8072 18.2747C36.9961 19.1608 36.3631 20.19 35.9241 21.3094C34.571 17.9106 31.528 15.5133 27.9992 15.4756C27.9701 15.4753 27.9411 15.4752 27.9121 15.4752C25.5913 15.4752 23.4066 16.4672 21.7519 18.2747C20.0762 20.1053 19.1533 22.5425 19.1533 25.1372V31.135H10.2604C9.85603 31.135 9.52835 31.4965 9.52835 31.9425C9.52835 32.3885 9.85603 32.7499 10.2604 32.7499H19.1533V35.9384C19.1533 36.3845 19.481 36.7459 19.8853 36.7459C20.2897 36.7459 20.6174 36.3845 20.6174 35.9384V25.1372C20.6174 22.9766 21.3861 20.947 22.7822 19.422C24.1778 17.8976 26.024 17.0647 27.9851 17.0904C31.9681 17.1328 35.2086 20.7934 35.2086 25.2502V31.1349H33.3583V25.1372C33.3583 21.8817 30.958 19.1876 28.0076 19.1318C27.9765 19.1313 27.9457 19.131 27.9146 19.131C26.5018 19.131 25.1631 19.7405 24.1362 20.854C23.0758 22.0037 22.4677 23.5985 22.4677 25.2294V46.9002C21.4918 46.3596 20.8663 45.5964 20.6173 45.2522V39.168C20.6173 38.722 20.2896 38.3606 19.8852 38.3606C19.4809 38.3606 19.1532 38.722 19.1532 39.168V45.2604C18.7363 45.8338 17.3314 47.4943 15.0466 47.4943C12.3438 47.4943 10.8721 45.1704 10.8123 45.0742C10.5867 44.7041 10.1319 44.6059 9.79642 44.8546C9.46094 45.1034 9.37181 45.605 9.59741 45.9752C9.67534 46.1032 11.5479 49.1092 15.0465 49.1092C17.4384 49.1092 19.0702 47.7043 19.8881 46.7745C20.7061 47.7043 22.338 49.1092 24.7298 49.1092C27.1211 49.1092 28.7511 47.705 29.5683 46.7749C30.3865 47.7048 32.0182 49.1092 34.4095 49.1092C36.8014 49.1092 38.4332 47.7043 39.2511 46.7745C40.0691 47.7043 41.701 49.1092 44.0928 49.1092C46.4841 49.1092 48.114 47.705 48.9313 46.7749C49.7494 47.7048 51.3812 49.1092 53.7725 49.1092C57.2711 49.1092 59.1436 46.1032 59.2216 45.9752C59.447 45.6061 59.3582 45.1072 59.0246 44.8577ZM23.9317 38.3607H35.2086V40.6213H23.9317V38.3607ZM35.2086 36.7458H23.9317V32.7498H35.2086V36.7458ZM25.1626 22.0057C25.9298 21.1738 26.931 20.7267 27.9825 20.7465C30.1395 20.7873 31.8944 22.757 31.8944 25.1374V31.1351H23.9318V25.2295C23.9317 24.0287 24.3804 22.8537 25.1626 22.0057ZM30.1756 45.0742C29.9066 44.6062 29.2327 44.6059 28.9619 45.0722C28.9007 45.1711 27.4323 47.4943 24.7301 47.4943C24.4504 47.4943 24.1848 47.4683 23.9317 47.4236V42.2361H35.2086V47.4235C34.9555 47.4682 34.6896 47.4943 34.4098 47.4943C31.707 47.4943 30.2353 45.1704 30.1756 45.0742ZM36.6726 46.8999V25.1372C36.6726 22.9766 37.4414 20.947 38.8374 19.422C40.233 17.8976 42.0794 17.0647 44.0403 17.0904C48.0233 17.1328 51.2639 20.7934 51.2639 25.2502V31.1349H49.4136V29.3401C49.4136 28.8941 49.0859 28.5326 48.6815 28.5326C48.2772 28.5326 47.9495 28.8941 47.9495 29.3401V31.1349H39.9869V25.2293C39.9869 24.0286 40.4355 22.8536 41.2177 22.0054C41.9849 21.1736 42.9843 20.7265 44.0376 20.7463C46.1947 20.7871 47.9495 22.7568 47.9495 25.1371V26.1104C47.9495 26.5564 48.2772 26.9178 48.6815 26.9178C49.0859 26.9178 49.4136 26.5564 49.4136 26.1104V25.1371C49.4136 21.8816 47.0132 19.1875 44.0629 19.1317C44.0317 19.1312 44.0009 19.1309 43.9698 19.1309C42.557 19.1309 41.2184 19.7404 40.1914 20.8539C39.1311 22.0036 38.5229 23.5984 38.5229 25.2293V45.2511C38.2731 45.5968 37.6477 46.3596 36.6726 46.8999ZM29.5718 57.3574C26.869 57.3574 25.3973 55.0334 25.3375 54.9372C25.0687 54.4695 24.3953 54.469 24.1242 54.9346C24.0629 55.0336 22.5911 57.3575 19.8884 57.3575C17.1857 57.3575 15.7139 55.0336 15.6541 54.9373C15.4285 54.5671 14.9737 54.4689 14.6382 54.7178C14.3027 54.9665 14.2136 55.4682 14.4392 55.8382C14.5171 55.9662 16.3896 58.9723 19.8883 58.9723C22.2802 58.9723 23.912 57.5673 24.7299 56.6375C25.5479 57.5673 27.1798 58.9723 29.5717 58.9723C29.976 58.9723 30.3037 58.6108 30.3037 58.1648C30.3037 57.7188 29.9761 57.3574 29.5718 57.3574ZM53.1671 54.9353C53.3945 54.568 53.849 54.4711 54.1828 54.7203C54.5167 54.9695 54.606 55.4681 54.3811 55.8376C54.3033 55.9656 52.4343 58.9723 48.9352 58.9723C46.5434 58.9723 44.9115 57.5674 44.0935 56.6375C43.2756 57.5674 41.6438 58.9723 39.2519 58.9723C36.8594 58.9723 35.2274 57.5666 34.4097 56.6368C34.0482 57.0472 33.5282 57.5505 32.8558 57.9835C32.5065 58.208 32.0584 58.0782 31.8545 57.6932C31.6506 57.3081 31.7685 56.8136 32.1176 56.5888C33.2073 55.8872 33.798 54.9446 33.8039 54.9353C34.0748 54.469 34.7486 54.4693 35.0176 54.9372C35.0774 55.0335 36.5491 57.3574 39.2519 57.3574C41.9793 57.3574 43.4714 54.9614 43.4862 54.9372C43.7552 54.4671 44.432 54.467 44.7011 54.9372C44.7609 55.0335 46.2325 57.3574 48.9354 57.3574C51.6377 57.3574 53.106 55.0341 53.1671 54.9353Z" fill="white"/>
</svg>
