<svg width="69" height="69" viewBox="0 0 69 69" fill="none" xmlns="http://www.w3.org/2000/svg">
<rect x="0.337036" y="0.75293" width="68" height="68" rx="6" fill="#CAA98A"/>
<path d="M50.9589 30.0775C51.1615 29.9075 51.3641 29.6524 51.3641 29.3124C51.3641 29.2274 51.3641 29.2274 51.3641 29.1424L51.2291 20.8966C51.2291 20.4716 50.8914 20.0466 50.5537 20.0466H49.068L47.6498 12.3959C47.5823 11.9708 47.3121 11.7158 46.9745 11.7158H21.7169C21.3793 11.7158 21.1091 11.9708 21.0416 12.3959L19.6234 20.0466H18.2052C17.8675 20.0466 17.5299 20.3866 17.5299 20.8966L17.4623 29.3124C17.4623 29.5674 17.5299 29.7374 17.6649 29.9075C17.7325 29.9925 17.7325 29.9925 17.8 29.9925L12.735 56.7699C12.6675 57.2799 12.9376 57.79 13.4103 57.79H55.2811C55.7538 57.79 56.0915 57.1099 55.8889 56.5999L50.9589 30.0775ZM18.813 25.9971H21.3117V28.5473H18.813V25.9971ZM26.782 28.5473V25.9971H29.5508V28.5473H26.782ZM29.5508 21.7467V24.2119H26.782V21.7467H29.5508ZM33.6704 21.7467V24.2119H30.9015V21.7467H33.6704ZM41.9094 21.7467V24.2119H39.1406V21.7467H41.9094ZM37.7899 21.7467V24.2119H35.021V21.7467H37.7899ZM30.9015 25.9971H33.6704V28.5473H30.9015V25.9971ZM35.021 25.9971H37.7899V28.5473H35.021V25.9971ZM39.2081 28.5473V25.9971H41.977V28.5473H39.2081ZM43.3277 28.5473V25.9971H46.0965V28.5473H43.3277ZM43.3277 24.297V21.8317H46.0965V24.297H43.3277ZM35.021 20.0466V17.9214H44.6108L44.9485 20.0466C42.6523 20.0466 37.5198 20.0466 35.021 20.0466ZM44.3407 16.2212H24.3508L24.756 13.501H43.9355L44.3407 16.2212ZM24.0806 17.9214H33.6704V20.0466C33.4678 20.0466 23.6754 20.0466 23.743 20.0466L24.0806 17.9214ZM25.4313 21.7467V24.2119H22.6624V21.7467H25.4313ZM25.4313 25.9971V28.5473H22.6624V25.9971H25.4313ZM22.2572 30.2475H26.1066H30.2262H33.6704V45.8039H19.8935L22.2572 30.2475ZM19.6234 47.504H49.0005L50.2836 56.1748H18.3403L19.6234 47.504ZM35.021 45.8039V30.2475H38.5328H42.6523H46.4342L48.7979 45.8039H35.021ZM47.4472 28.5473V25.9971H49.9459V28.5473H47.4472ZM49.8784 24.297H47.3797V21.8317H48.5277H49.8784V24.297ZM47.6498 20.0466C47.5823 20.0466 46.2316 20.0466 46.2991 20.0466L45.2861 13.501H46.4342L47.6498 20.0466ZM22.2572 13.501H23.4053L22.3923 20.0466C22.3247 20.0466 20.9065 20.0466 21.0416 20.0466L22.2572 13.501ZM20.1637 21.7467H21.3117V24.2119H18.813V21.7467H20.1637ZM19.0831 30.2475H20.839L16.9896 56.1748H14.2883L19.0831 30.2475ZM51.7018 56.1748L47.7849 30.2475H49.5407L54.4031 56.1748H51.7018Z" fill="white"/>
</svg>
