<svg width="69" height="69" viewBox="0 0 69 69" fill="none" xmlns="http://www.w3.org/2000/svg">
<rect x="0.0656738" y="0.751953" width="68" height="68" rx="6" fill="#CAA98A"/>
<path d="M32.5192 30.2316H27.7833V24.1809H25.3108V30.2316H21.8045V46.4121H29.9769L29.9202 51.245H16.7501V18.2605H27.8607V16.0745H14.2776V53.431H32.3672L32.4753 44.226H24.2771V32.4177H30.0467V39.3509H39.0781V37.1649H32.5192V30.2316Z" fill="white"/>
<path d="M31.5001 16.0745V25.2739H45.6738V23.0879H33.9726V18.2605H51.3816V38.2956H45.8904V30.2316H36.4205V32.4177H43.4178V44.226H36.5029V46.4121H45.8904V40.4816H51.3816V51.245H37.0323V53.431H53.8542V16.0745H31.5001Z" fill="white"/>
</svg>
