<svg width="17" height="17" viewBox="0 0 17 17" fill="none" xmlns="http://www.w3.org/2000/svg">
<path d="M7.55839 10.8053L6.06384 12.2998C5.74877 12.6149 5.24789 12.6149 4.92474 12.3079C4.83588 12.219 4.74701 12.1382 4.65815 12.0494C3.82604 11.2092 3.07473 10.3286 2.4042 9.40765C1.74175 8.48668 1.20855 7.56572 0.820778 6.65283C0.441081 5.73186 0.247192 4.85128 0.247192 4.0111C0.247192 3.46175 0.344136 2.93664 0.538024 2.45192C0.731913 1.95912 1.0389 1.50671 1.46707 1.10278C1.98411 0.593823 2.54961 0.343384 3.14744 0.343384C3.37364 0.343384 3.59984 0.391856 3.80181 0.4888C4.01185 0.585744 4.19766 0.73116 4.34308 0.941206L6.21733 3.58293C6.36275 3.7849 6.46777 3.97071 6.54048 4.14844C6.61319 4.31809 6.65358 4.48774 6.65358 4.64124C6.65358 4.83513 6.59703 5.02901 6.48393 5.21482C6.3789 5.40063 6.22541 5.59452 6.03152 5.78841L5.41754 6.42662C5.32868 6.51549 5.28828 6.62051 5.28828 6.74977C5.28828 6.8144 5.29636 6.87095 5.31252 6.93558C5.33676 7.00021 5.36099 7.04868 5.37715 7.09715C5.52257 7.36375 5.773 7.71113 6.12847 8.13122C6.49201 8.55131 6.87978 8.97948 7.29987 9.40765C7.38066 9.48844 7.46952 9.56923 7.55031 9.65001C7.87346 9.96508 7.88154 10.4821 7.55839 10.8053Z" fill="white"/>
<path d="M16.38 13.5351C16.38 13.7613 16.3396 13.9956 16.2588 14.2218C16.2346 14.2865 16.2104 14.3511 16.1781 14.4157C16.0407 14.7066 15.863 14.9812 15.6287 15.2397C15.2329 15.676 14.7966 15.9911 14.3038 16.193C14.2957 16.193 14.2877 16.2011 14.2796 16.2011C13.8029 16.395 13.2859 16.5 12.7285 16.5C11.9044 16.5 11.0239 16.3061 10.0948 15.9103C9.16577 15.5144 8.23673 14.9812 7.31576 14.3107C7.00069 14.0764 6.68563 13.8421 6.38672 13.5917L9.02844 10.95C9.25464 11.1196 9.45661 11.2489 9.62626 11.3377C9.66665 11.3539 9.71512 11.3781 9.77167 11.4024C9.8363 11.4266 9.90093 11.4347 9.97364 11.4347C10.111 11.4347 10.216 11.3862 10.3049 11.2974L10.9188 10.6915C11.1208 10.4895 11.3147 10.336 11.5005 10.239C11.6863 10.1259 11.8721 10.0694 12.0741 10.0694C12.2276 10.0694 12.3892 10.1017 12.5669 10.1744C12.7446 10.2471 12.9304 10.3522 13.1324 10.4895L15.8064 12.388C16.0165 12.5334 16.1619 12.703 16.2508 12.905C16.3316 13.107 16.38 13.3089 16.38 13.5351Z" fill="white"/>
</svg>
