<svg width="77" height="77" viewBox="0 0 77 77" fill="none" xmlns="http://www.w3.org/2000/svg">
<path d="M18.4647 24.7905H20.3901V26.8656H18.4647V24.7905Z" fill="#CAA98A"/>
<path d="M20.3901 28.9405H18.4647V31.0156H20.3901V28.9405Z" fill="#CAA98A"/>
<path d="M14.6141 24.7905H16.5396V26.8656H14.6141V24.7905Z" fill="#CAA98A"/>
<path d="M16.5396 28.9405H14.6141V31.0156H16.5396V28.9405Z" fill="#CAA98A"/>
<path d="M22.3153 12.3406H24.2407V14.4157H22.3153V12.3406Z" fill="#CAA98A"/>
<path d="M28.0913 12.3406H26.1659V14.4157H28.0913V12.3406Z" fill="#CAA98A"/>
<path d="M26.1659 16.4904H28.0913V18.5656H26.1659V16.4904Z" fill="#CAA98A"/>
<path d="M24.2407 16.4904H22.3153V18.5656H24.2407V16.4904Z" fill="#CAA98A"/>
<path d="M26.1659 28.9405H28.0913V31.0156H26.1659V28.9405Z" fill="#CAA98A"/>
<path d="M28.0913 24.7905H26.1659V26.8656H28.0913V24.7905Z" fill="#CAA98A"/>
<path d="M26.1659 20.6405H28.0913V22.7156H26.1659V20.6405Z" fill="#CAA98A"/>
<path fill-rule="evenodd" clip-rule="evenodd" d="M10.7636 20.6405V33.0905H8.83828V35.1656H35.7925V6.11536H33.8672V33.0905H31.9419V8.19037H18.4648V20.6405H10.7636ZM22.3154 33.0905H12.6889V22.7155H22.3154V33.0905ZM20.3901 10.2654H30.0166V33.0905H24.2407V20.6405H20.3901V10.2654Z" fill="#CAA98A"/>
<path d="M49.2695 24.7905H53.1203V26.8656H49.2695V24.7905Z" fill="#CAA98A"/>
<path d="M53.1203 28.9405H49.2695V31.0156H53.1203V28.9405Z" fill="#CAA98A"/>
<path d="M58.896 20.6405H60.8214V22.7156H58.896V20.6405Z" fill="#CAA98A"/>
<path d="M60.8214 24.7905H58.896V26.8656H60.8214V24.7905Z" fill="#CAA98A"/>
<path d="M58.896 28.9405H60.8214V31.0156H58.896V28.9405Z" fill="#CAA98A"/>
<path fill-rule="evenodd" clip-rule="evenodd" d="M43.4938 33.0906H45.4191V20.6405H49.9387L49.1686 12.3405H52.1576C52.1576 8.90735 54.7481 6.11542 57.9335 6.11542C61.119 6.11542 63.7094 8.90735 63.7094 12.3405H66.6985L64.7732 33.0906H68.5227V35.1656H41.5685V6.11542H43.4938V33.0906ZM47.3444 33.0906H55.0456V22.7155H47.3444V33.0906ZM57.9335 8.19043C55.8099 8.19043 54.0829 10.0517 54.0829 12.3405C54.0829 14.6292 55.8099 16.4905 57.9335 16.4905C60.0572 16.4905 61.7841 14.6292 61.7841 12.3405C61.7841 10.0517 60.0572 8.19043 57.9335 8.19043ZM64.571 14.4155H63.3725C62.5774 16.8298 60.4432 18.5655 57.9335 18.5655C55.4239 18.5655 53.2897 16.8298 52.4946 14.4155H51.2961L51.8736 20.6405H56.9709V33.0906H62.8382L64.571 14.4155Z" fill="#CAA98A"/>
<path d="M43.4937 43.4656H68.5227V41.3906H41.5684V70.4408H43.4937V43.4656Z" fill="#CAA98A"/>
<path d="M33.8673 70.4408H35.7926V41.3906H8.83834V43.4656H33.8673V70.4408Z" fill="#CAA98A"/>
<path fill-rule="evenodd" clip-rule="evenodd" d="M57.301 45.5406L66.5974 53.3334V55.9157H64.6721V66.2908H47.3443V55.9157H45.419V53.3334L54.7154 45.5406H57.301ZM53.1202 64.2158H58.8962V60.0658H53.1202V64.2158ZM49.2696 64.2158H51.1949V57.9907H60.8215V64.2158H62.7468V55.9157H49.2696V64.2158ZM64.0666 53.8407L56.6407 47.6157H55.3767L47.9508 53.8407H64.0666Z" fill="#CAA98A"/>
<path fill-rule="evenodd" clip-rule="evenodd" d="M15.5768 64.2158H9.31961L14.3177 51.2864C14.6931 50.3173 15.5653 49.6907 16.5395 49.6907C17.5137 49.6907 18.3859 50.3173 18.7613 51.2864L20.0695 54.6707L22.9825 47.1363C23.357 46.1673 24.2292 45.5406 25.2034 45.5406C26.1776 45.5406 27.0497 46.1673 27.4252 47.1363L32.4232 60.0658H26.166V68.3658H31.9419V70.4408H8.83828V68.3658H15.5768V64.2158ZM16.9842 52.0852C16.8341 51.6983 16.2449 51.6983 16.0947 52.0852L12.2076 62.1408H20.8714L20.0695 60.0658H17.9835L19.026 57.3693L16.9842 52.0852ZM24.7586 47.9352L20.8714 57.9907H29.5353L25.6481 47.9352C25.4979 47.5482 24.9088 47.5482 24.7586 47.9352ZM24.2407 60.0658H22.1546L23.7594 64.2158H17.5021V68.3658H24.2407V60.0658Z" fill="#CAA98A"/>
</svg>
