<svg width="77" height="77" viewBox="0 0 77 77" fill="none" xmlns="http://www.w3.org/2000/svg">
<path d="M58.281 22.4077C58.4547 22.5941 58.6979 22.708 58.9585 22.725C59.219 22.742 59.4761 22.6607 59.6747 22.4986C59.8733 22.3365 59.9975 22.1064 60.0206 21.8578C60.0437 21.6091 59.964 21.3617 59.7985 21.1686C49.1201 8.81226 28.0773 8.81317 17.3999 21.169C17.234 21.362 17.154 21.6096 17.177 21.8585C17.2 22.1074 17.3242 22.3377 17.523 22.4999C17.7218 22.6622 17.9792 22.7434 18.24 22.7261C18.5008 22.7089 18.7441 22.5945 18.9176 22.4077C28.8321 10.9369 48.3678 10.9381 58.281 22.4077Z" fill="#CAA98A"/>
<path d="M15.8687 50.5189C15.7377 50.303 15.5234 50.1447 15.2717 50.078C15.02 50.0114 14.7511 50.0416 14.5225 50.1623C14.2938 50.2829 14.1238 50.4844 14.0488 50.7235C13.9738 50.9626 13.9997 51.2202 14.1211 51.4412C24.5111 69.7572 52.6911 69.7529 63.0774 51.4408C63.2047 51.2194 63.2349 50.9587 63.1614 50.7159C63.0878 50.4732 62.9165 50.2682 62.685 50.1461C62.4535 50.024 62.1808 49.9947 61.9267 50.0646C61.6726 50.1344 61.4579 50.2978 61.3297 50.5189C59.0886 54.4061 55.7973 57.6474 51.7993 59.9047C47.8012 62.1621 43.2427 63.3529 38.5992 63.3529C33.9557 63.3529 29.3972 62.1621 25.3991 59.9047C21.4011 57.6474 18.1099 54.4061 15.8687 50.5189Z" fill="#CAA98A"/>
<path d="M25.1696 22.3053C25.2053 22.0578 25.3412 21.8336 25.548 21.6807C29.3281 19.0159 33.9018 17.5781 38.5989 17.5781C43.296 17.5781 47.8697 19.0159 51.6499 21.6807C51.8563 21.8336 51.9918 22.0578 52.0273 22.3052C52.0628 22.5525 51.9955 22.8033 51.8398 23.0037C51.6841 23.2041 51.4524 23.3382 51.1944 23.3772C50.9364 23.4163 50.6727 23.3571 50.4599 23.2124C47.0242 20.791 42.8677 19.4847 38.599 19.4847C34.3304 19.4846 30.1738 20.7909 26.7381 23.2123C26.5253 23.3574 26.2614 23.4169 26.0032 23.378C25.745 23.3392 25.513 23.205 25.3572 23.0044C25.2013 22.8039 25.134 22.5528 25.1696 22.3053Z" fill="#CAA98A"/>
<path d="M38.5997 59.5369C41.9111 59.5433 45.1806 58.8296 48.1608 57.4498C51.1409 56.0699 53.7536 54.0601 55.8009 51.5725C55.9591 51.3735 56.0293 51.1233 55.9966 50.8754C55.9639 50.6275 55.8308 50.4018 55.6259 50.2467C55.4209 50.0915 55.1606 50.0194 54.9006 50.0457C54.6407 50.0721 54.4019 50.1948 54.2356 50.3875C46.5799 59.9817 30.6185 59.9806 22.9639 50.3872C22.7975 50.1946 22.5587 50.0721 22.2988 50.0459C22.0389 50.0197 21.7786 50.0919 21.5738 50.247C21.369 50.4021 21.2359 50.6278 21.2031 50.8756C21.1704 51.1234 21.2406 51.3736 21.3986 51.5725C23.4459 54.0601 26.0586 56.07 29.0387 57.4498C32.0188 58.8297 35.2884 59.5433 38.5997 59.5369Z" fill="#CAA98A"/>
<path fill-rule="evenodd" clip-rule="evenodd" d="M10.6748 43.07C10.6549 42.3499 10.8287 41.6369 11.1797 40.9994C12.5443 38.5831 14.8037 36.741 17.5151 35.8341C16.7572 35.2762 16.1433 34.5596 15.7206 33.7394C15.2979 32.9192 15.0777 32.0172 15.077 31.1029C15.3701 23.1714 27.323 23.1834 27.6104 31.1028C27.6097 32.0175 27.3893 32.9198 26.9663 33.7403C26.5433 34.5608 25.9289 35.2775 25.1705 35.8354C27.615 36.6619 29.6972 38.2511 31.0815 40.3467C32.1174 39.6816 33.2451 39.1576 34.4322 38.7897C33.4849 38.1527 32.7117 37.3074 32.1776 36.3251C31.6436 35.3428 31.3644 34.2521 31.3635 33.1451C31.7025 23.9912 45.4965 23.9949 45.8345 33.145C45.8336 34.252 45.5544 35.3427 45.0204 36.325C44.4863 37.3074 43.7131 38.1527 42.7658 38.7897C43.9523 39.1574 45.0796 39.6812 46.1151 40.3458C47.497 38.248 49.5803 36.6583 52.0266 35.8348C51.2684 35.2769 50.6543 34.5603 50.2315 33.7399C49.8086 32.9196 49.5883 32.0174 49.5876 31.1029C49.8837 23.1755 61.8235 23.1758 62.121 31.1028C62.1203 32.0172 61.9001 32.9192 61.4774 33.7394C61.0547 34.5596 60.4408 35.2763 59.6828 35.8341C62.3943 36.741 64.6537 38.5831 66.0182 40.9994C66.3692 41.6369 66.543 42.3498 66.5231 43.07C66.5032 43.7901 66.2902 44.4933 65.9044 45.1122C65.5187 45.7311 64.9731 46.2449 64.32 46.6045C63.667 46.9641 62.9282 47.1573 62.1746 47.1658H51.0683C51.0751 47.7962 50.951 48.4217 50.7034 49.006C50.4557 49.5903 50.0894 50.122 49.6255 50.5702C49.1617 51.0184 48.6095 51.3743 48.0008 51.6173C47.3922 51.8603 46.7392 51.9856 46.0796 51.986L31.1183 51.9859C30.4596 51.9828 29.8079 51.8556 29.2006 51.6116C28.5933 51.3676 28.0423 51.0116 27.579 50.5639C27.1157 50.1163 26.7492 49.5858 26.5005 49.0027C26.2519 48.4197 26.1258 47.7955 26.1296 47.1658L15.0235 47.1657C14.2699 47.1573 13.5311 46.964 12.878 46.6045C12.2249 46.2449 11.6794 45.7311 11.2936 45.1122C10.9078 44.4933 10.6948 43.7902 10.6748 43.07ZM52.8489 28.2416C52.0491 28.9988 51.5945 30.027 51.5837 31.1029C51.5944 32.1787 52.0491 33.207 52.8488 33.9641C53.6485 34.7212 54.7286 35.146 55.8542 35.146C56.9798 35.146 58.0599 34.7213 58.8596 33.9642C59.6594 33.2071 60.1141 32.1788 60.1248 31.1029C60.1141 30.0271 59.6594 28.9988 58.8597 28.2417C58.06 27.4846 56.9799 27.0598 55.8543 27.0598C54.7287 27.0598 53.6486 27.4845 52.8489 28.2416ZM60.7499 38.3852C59.2683 37.538 57.5737 37.0911 55.8472 37.0924C54.2035 37.0979 52.5892 37.5089 51.1604 38.2857C49.7317 39.0624 48.537 40.1786 47.692 41.5261C48.9109 42.5787 49.9065 43.8457 50.6246 45.2578H62.1745C62.5842 45.2527 62.9856 45.1472 63.3404 44.9513C63.6952 44.7554 63.9915 44.4757 64.2008 44.1391C64.4101 43.8024 64.5254 43.42 64.5358 43.0285C64.5461 42.637 64.4512 42.2495 64.2599 41.9031C63.4447 40.4484 62.2316 39.2325 60.7499 38.3852ZM33.3596 33.145C33.5798 26.5268 43.6192 26.5283 43.8384 33.1451C43.6183 39.7638 33.5786 39.7623 33.3596 33.145ZM49.0627 47.2641C49.0757 46.7696 48.9555 46.2802 48.7137 45.8429C44.5319 38.1902 32.6672 38.1895 28.4842 45.8429C28.237 46.2796 28.1126 46.7701 28.1231 47.2665C28.1335 47.7628 28.2786 48.2481 28.544 48.6749C28.8094 49.1017 29.1862 49.4553 29.6374 49.7013C30.0886 49.9472 30.5989 50.077 31.1183 50.0781L46.0796 50.078C46.597 50.0721 47.1042 49.9392 47.5525 49.6921C48.0008 49.445 48.3751 49.0919 48.6396 48.6667C48.904 48.2415 49.0497 47.7586 49.0627 47.2641ZM18.3381 28.2413C17.5384 28.9985 17.0838 30.0269 17.0732 31.1028C17.0837 32.1788 17.5383 33.2072 18.3381 33.9644C19.1378 34.7217 20.218 35.1465 21.3437 35.1465C22.4694 35.1465 23.5496 34.7217 24.3493 33.9645C25.149 33.2073 25.6037 32.1789 25.6143 31.1029C25.6037 30.027 25.1491 28.9986 24.3494 28.2414C23.5496 27.4841 22.4695 27.0593 21.3438 27.0593C20.2181 27.0593 19.1379 27.4841 18.3381 28.2413ZM26.0291 38.284C24.5976 37.5071 22.9805 37.0966 21.3344 37.0922C19.6106 37.0938 17.9196 37.5421 16.4411 38.3892C14.9626 39.2363 13.752 40.4507 12.9381 41.903C12.7469 42.2494 12.6519 42.6369 12.6622 43.0284C12.6726 43.4199 12.7879 43.8023 12.9972 44.139C13.2065 44.4757 13.5027 44.7553 13.8575 44.9513C14.2122 45.1472 14.6137 45.2527 15.0234 45.2578H26.5733C27.2913 43.846 28.2867 42.5794 29.5053 41.5269C28.6579 40.1779 27.4606 39.0609 26.0291 38.284Z" fill="#CAA98A"/>
</svg>
