<svg width="77" height="77" viewBox="0 0 77 77" fill="none" xmlns="http://www.w3.org/2000/svg">
<path fill-rule="evenodd" clip-rule="evenodd" d="M41.6451 34.5998H66.1379C66.3136 34.5998 66.4873 34.5627 66.6475 34.4906C66.8077 34.4185 66.9506 34.3134 67.0669 34.182C67.1831 34.0507 67.27 33.8961 67.3217 33.7287C67.3734 33.5614 67.3888 33.3849 67.3668 33.2111L65.1404 15.2135C65.1027 14.9152 64.957 14.6407 64.7307 14.4419C64.5044 14.243 64.2131 14.1333 63.9114 14.1334H41.3812C41.217 14.1334 41.0546 14.1659 40.9032 14.2291C40.7518 14.2922 40.6145 14.3847 40.4992 14.5012C40.384 14.6177 40.2932 14.7559 40.232 14.9077C40.1709 15.0595 40.1406 15.222 40.1429 15.3856L40.4068 33.3831C40.4115 33.7074 40.544 34.0169 40.7757 34.2445C41.0074 34.4722 41.3197 34.5998 41.6451 34.5998ZM64.7379 32.131H42.8647L42.6372 16.6022H62.8171L64.7379 32.131Z" fill="#CAA98A"/>
<path fill-rule="evenodd" clip-rule="evenodd" d="M12.3085 34.5991H10.5642V34.606C10.3885 34.6061 10.2148 34.5689 10.0546 34.4969C9.89447 34.4248 9.75151 34.3196 9.63527 34.1883C9.51902 34.0569 9.43215 33.9024 9.38043 33.735C9.32871 33.5676 9.31332 33.3911 9.33528 33.2173L11.5618 15.2136C11.5995 14.9152 11.7451 14.6408 11.9714 14.442C12.1977 14.2431 12.489 14.1334 12.7907 14.1335H35.3217C35.4859 14.1335 35.6483 14.166 35.7997 14.2291C35.9511 14.2923 36.0884 14.3848 36.2036 14.5013C36.3189 14.6178 36.4097 14.756 36.4709 14.9078C36.532 15.0596 36.5623 15.222 36.56 15.3856L36.2953 33.3832C36.2904 33.7074 36.1578 34.0166 35.9261 34.2441C35.6944 34.4716 35.3823 34.5991 35.0571 34.5991H33.7014C34.1226 35.6318 34.3974 36.7387 34.5002 37.8942H35.6329C35.797 37.8942 35.9595 37.9267 36.1109 37.9898C36.2623 38.0529 36.3996 38.1455 36.5148 38.262C36.63 38.3785 36.7208 38.5167 36.782 38.6685C36.8432 38.8203 36.8735 38.9828 36.8711 39.1463L36.5399 61.7312C36.5352 62.0556 36.4027 62.365 36.171 62.5926C35.9393 62.8203 35.627 62.9479 35.3017 62.9479H7.72485C7.54914 62.948 7.37543 62.9107 7.21526 62.8387C7.0551 62.7667 6.91214 62.6615 6.7959 62.5301C6.67965 62.3988 6.59278 62.2443 6.54106 62.0769C6.48933 61.9095 6.47395 61.733 6.49591 61.5592L9.28965 38.9743C9.32736 38.6759 9.47303 38.4015 9.69932 38.2027C9.9256 38.0038 10.2169 37.8941 10.5186 37.8942H11.5096C11.6124 36.7387 11.8873 35.6318 12.3085 34.5991ZM13.9424 39.0323C13.9448 39.0636 13.9461 39.0952 13.9462 39.127C14.1467 43.0813 19.8542 51.316 23.0053 55.4419C26.1635 51.3087 31.8834 43.049 32.0647 39.1057C32.065 39.0882 32.0657 39.0707 32.0668 39.0533C32.0683 39.0075 32.0691 38.9624 32.0691 38.9179C32.0664 36.5222 31.1106 34.2255 29.4114 32.5315C27.7122 30.8376 25.4083 29.8847 23.0053 29.882C20.6022 29.8847 18.2982 30.8375 16.5989 32.5315C14.8995 34.2254 13.9436 36.5222 13.9407 38.9179C13.9407 38.9556 13.9413 38.9937 13.9424 39.0323ZM34.3749 40.4427C33.8495 43.0029 32.1129 46.5393 29.1926 50.9887C26.6147 54.9165 24.0795 58.0896 23.9727 58.2231C23.8566 58.3677 23.7093 58.4843 23.5419 58.5645C23.3744 58.6446 23.191 58.6861 23.0053 58.686C22.8194 58.6862 22.6359 58.6447 22.4683 58.5647C22.3007 58.4845 22.1533 58.3678 22.0372 58.2231C22.0312 58.2155 22.0177 58.1984 21.9971 58.1723C21.648 57.7303 19.252 54.6972 16.818 50.9887C13.8673 46.493 12.1245 42.9294 11.6189 40.363H11.6136L9.12482 60.4791H34.082L34.3749 40.4427ZM32.3173 32.1303H33.8374L34.0649 16.6023H13.8858L11.965 32.1303H13.6928C15.7947 29.2728 19.1864 27.414 23.0053 27.414C26.8242 27.414 30.2156 29.2728 32.3173 32.1303Z" fill="#CAA98A"/>
<path fill-rule="evenodd" clip-rule="evenodd" d="M42.0593 62.8784H69.6361C69.8118 62.8785 69.9855 62.8413 70.1456 62.7693C70.3058 62.6972 70.4488 62.5921 70.565 62.4607C70.6813 62.3293 70.7681 62.1748 70.8198 62.0074C70.8716 61.84 70.887 61.6635 70.865 61.4898L68.0713 38.9041C68.0337 38.6056 67.8881 38.331 67.6618 38.132C67.4355 37.933 67.1441 37.8232 66.8423 37.8232H41.728C41.5639 37.8232 41.4013 37.8557 41.2499 37.9189C41.0984 37.9821 40.9611 38.0747 40.8458 38.1913C40.7306 38.3079 40.6398 38.4461 40.5787 38.5981C40.5176 38.75 40.4873 38.9124 40.4898 39.0761L40.821 61.6618C40.8257 61.9861 40.9582 62.2956 41.1899 62.5232C41.4216 62.7509 41.7339 62.8785 42.0593 62.8784ZM68.2361 60.4096H43.2797L42.9848 40.292H65.7473L68.2361 60.4096Z" fill="#CAA98A"/>
</svg>
