<svg width="77" height="78" viewBox="0 0 77 78" fill="none" xmlns="http://www.w3.org/2000/svg">
<path d="M7.77415 63.2949H69.4241V66.0108H7.77415V63.2949Z" fill="#CAA98A"/>
<path d="M9.05851 53.7895H12.9119V56.5055H9.05851V53.7895Z" fill="#CAA98A"/>
<path d="M16.7648 53.7895H20.6181V56.5055H16.7648V53.7895Z" fill="#CAA98A"/>
<path d="M24.4709 53.7895H28.3243V56.5055H24.4709V53.7895Z" fill="#CAA98A"/>
<path d="M32.1772 53.7895H36.0306V56.5055H32.1772V53.7895Z" fill="#CAA98A"/>
<path d="M39.8836 53.7895H43.7369V56.5055H39.8836V53.7895Z" fill="#CAA98A"/>
<path d="M47.5897 53.7895H51.4431V56.5055H47.5897V53.7895Z" fill="#CAA98A"/>
<path d="M55.296 53.7895H59.1493V56.5055H55.296V53.7895Z" fill="#CAA98A"/>
<path d="M63.0022 53.7895H66.8556V56.5055H63.0022V53.7895Z" fill="#CAA98A"/>
<path d="M50.1584 18.4826H57.865V21.1986H50.1584V18.4826Z" fill="#CAA98A"/>
<path d="M19.3336 18.4826H27.0402V21.1986H19.3336V18.4826Z" fill="#CAA98A"/>
<path d="M15.1083 47.0006H7.77415V44.2846H13.2844L18.7947 27.9884H16.7652V25.2723H22.4425L15.1083 47.0006Z" fill="#CAA98A"/>
<path d="M55.6041 46.9995H21.594L25.9993 25.2723H30.8928V27.9883H28.08L24.7792 44.2837H52.4189L49.118 27.9883H46.3052V25.2723H51.1987L55.6041 46.9995Z" fill="#CAA98A"/>
<path d="M69.4249 47.0006H62.0907L54.7566 25.2723H60.4337V27.9884H58.4043L63.9146 44.2846H69.4249V47.0006Z" fill="#CAA98A"/>
<path d="M38.599 32.8635L37.5972 31.5598C37.2248 31.0574 28.3241 19.3111 28.3241 11.4892C28.3241 5.60936 32.935 0.829365 38.599 0.829365C44.263 0.829365 48.874 5.60936 48.874 11.4892C48.874 19.3246 39.9733 31.0708 39.6008 31.5598L38.599 32.8635ZM38.599 3.54522C34.3477 3.54522 30.8928 7.10303 30.8928 11.4892C30.8928 16.9346 36.3129 25.2181 38.599 28.4771C40.8852 25.2181 46.3052 16.9345 46.3052 11.4892C46.3052 7.10316 42.8503 3.54522 38.599 3.54522Z" fill="#CAA98A"/>
<path d="M38.5993 15.7673C36.48 15.7673 34.7459 13.934 34.7459 11.6932C34.7459 9.45237 36.4799 7.61906 38.5993 7.61906C40.7187 7.61906 42.4526 9.45237 42.4526 11.6932C42.4526 13.934 40.7187 15.7673 38.5993 15.7673ZM38.5993 10.3352C37.8928 10.3352 37.3148 10.9462 37.3148 11.6932C37.3148 12.4401 37.8928 13.0512 38.5993 13.0512C39.3057 13.0512 39.8837 12.4401 39.8837 11.6932C39.8838 10.9464 39.3057 10.3352 38.5993 10.3352Z" fill="#CAA98A"/>
</svg>
